<svg xmlns="http://www.w3.org/2000/svg" viewBox="0 0 920 440" role="img" aria-label="Querschnitt: eingefräster Heizrohrkanal im Bestandsestrich">
  <defs>
    <style>
      .lab{font-family:Montserrat,sans-serif;font-size:15px;font-weight:600;fill:#1E1518}
      .sub{font-family:Montserrat,sans-serif;font-size:12.5px;font-weight:500;fill:#6d6a6b}
      .ttl{font-family:Montserrat,sans-serif;font-size:16px;font-weight:800;fill:#1E1518}
      .ln{stroke:#1E1518;stroke-width:1.3;fill:none}
    </style>
    <pattern id="screed" width="14" height="14" patternUnits="userSpaceOnUse">
      <rect width="14" height="14" fill="#e9e4e1"/>
      <circle cx="3" cy="4" r="1.5" fill="#cfc7c2"/><circle cx="10" cy="9" r="2" fill="#d6cfca"/>
      <circle cx="7" cy="12" r="1.2" fill="#cfc7c2"/>
    </pattern>
    <pattern id="insul" width="22" height="16" patternUnits="userSpaceOnUse">
      <rect width="22" height="16" fill="#fbeec9"/>
      <path d="M0 8 q5.5 -7 11 0 q5.5 7 11 0" stroke="#e7c873" stroke-width="1.4" fill="none"/>
    </pattern>
  </defs>

  <rect width="920" height="440" fill="#ffffff"/>
  <text x="40" y="42" class="ttl">Eingefräster Heizrohrkanal im Bestandsestrich</text>
  <text x="40" y="64" class="sub">Schematischer Aufbau – Fräsnut mit Heizrohr und Erstverguss</text>

  <!-- layer block -->
  <g transform="translate(220,92)">
    <!-- Beton -->
    <rect x="0" y="232" width="380" height="56" fill="#b9b2ad"/>
    <!-- Dämmschicht -->
    <rect x="0" y="204" width="380" height="28" fill="url(#insul)"/>
    <!-- Estrich -->
    <rect x="0" y="92" width="380" height="112" fill="url(#screed)"/>
    <!-- screed top line -->
    <rect x="0" y="92" width="380" height="4" fill="#cfc7c2"/>

    <!-- Fräsnut + Heizrohr -->
    <g transform="translate(150,96)">
      <!-- channel walls -->
      <path d="M0 0 L0 70 A26 26 0 0 0 52 70 L52 0" fill="#d8d0cb"/>
      <!-- Fließspachtel fill -->
      <path d="M4 18 L4 70 A22 22 0 0 0 48 70 L48 18 A22 22 0 0 1 26 40 A22 22 0 0 1 4 18 Z" fill="#cfd8e6"/>
      <!-- Heizrohr -->
      <circle cx="26" cy="48" r="18" fill="#fff" stroke="#E1322A" stroke-width="7"/>
      <circle cx="26" cy="48" r="7" fill="#eef2f7"/>
    </g>

    <!-- labels -->
    <g class="ln">
      <line x1="392" y1="120" x2="470" y2="120"/>
      <line x1="392" y1="218" x2="470" y2="218"/>
      <line x1="392" y1="260" x2="470" y2="260"/>
      <line x1="176" y1="150" x2="20" y2="150"/>
      <line x1="176" y1="170" x2="20" y2="190"/>
    </g>
    <text x="478" y="116" class="lab">Bestandsestrich</text>
    <text x="478" y="134" class="sub">Zement-/Calciumsulfatestrich</text>
    <text x="478" y="222" class="lab">Dämmschicht / Trennlage</text>
    <text x="478" y="264" class="lab">Tragender Untergrund</text>

    <text x="14" y="146" class="lab" text-anchor="end">Heizrohr</text>
    <text x="14" y="194" class="lab" text-anchor="end">Erstverguss</text>
    <text x="14" y="210" class="sub" text-anchor="end">der Fräsnut</text>
  </g>
</svg>
